<svg width="269" height="60" viewBox="0 0 269 60" fill="none" xmlns="http://www.w3.org/2000/svg">
<path d="M29.8943 37.5694C29.8943 39.482 29.1527 40.957 27.6694 41.9945C26.186 43.0321 24.1042 43.5508 21.4238 43.5508C18.5873 43.5508 16.3753 43.1196 14.7879 42.2571V39.3695C15.8158 39.8695 16.9153 40.2633 18.0864 40.5508C19.2704 40.8383 20.4089 40.982 21.5019 40.982C23.1934 40.982 24.4945 40.7258 25.4054 40.2132C26.3162 39.6882 26.7716 38.8945 26.7716 37.8319C26.7716 37.0319 26.4072 36.3506 25.6786 35.7881C24.963 35.2131 23.5577 34.5381 21.4629 33.7631C19.4721 33.0505 18.0538 32.4318 17.2081 31.9068C16.3753 31.3692 15.7508 30.763 15.3344 30.088C14.931 29.4129 14.7294 28.6067 14.7294 27.6691C14.7294 25.9941 15.4385 24.6753 16.8568 23.7128C18.275 22.7378 20.2202 22.2502 22.6924 22.2502C24.9955 22.2502 27.2465 22.7002 29.4454 23.6003L28.2939 26.1316C26.147 25.2816 24.2018 24.8566 22.4582 24.8566C20.9229 24.8566 19.7648 25.0878 18.9841 25.5503C18.2035 26.0128 17.8131 26.6504 17.8131 27.4629C17.8131 28.0129 17.9562 28.4817 18.2425 28.8692C18.5418 29.2567 19.0167 29.6254 19.6673 29.9755C20.3178 30.3255 21.5669 30.8317 23.4146 31.4942C25.9518 32.3818 27.6629 33.2756 28.5476 34.1756C29.4454 35.0756 29.8943 36.2069 29.8943 37.5694Z" fill="#0070D2"/>
<path d="M62.4493 43.1758V29.8067C62.4493 28.1692 62.0849 26.9441 61.3563 26.1316C60.6277 25.3066 59.4957 24.8941 57.9603 24.8941C55.9435 24.8941 54.4537 25.4503 53.4908 26.5629C52.528 27.6754 52.0465 29.3879 52.0465 31.7005V43.1758H48.8067V29.8067C48.8067 28.1692 48.4423 26.9441 47.7137 26.1316C46.985 25.3066 45.8465 24.8941 44.2981 24.8941C42.2683 24.8941 40.7785 25.4816 39.8287 26.6566C38.8918 27.8191 38.4234 29.7317 38.4234 32.3943V43.1758H35.1835V22.6252H37.8184L38.3454 25.4378H38.5015C39.113 24.4378 39.9718 23.6565 41.0778 23.094C42.1968 22.5315 43.4459 22.2502 44.8251 22.2502C48.1691 22.2502 50.355 23.4128 51.3829 25.7378H51.5391C52.1766 24.6628 53.1005 23.8128 54.3105 23.1878C55.5206 22.5627 56.8998 22.2502 58.4482 22.2502C60.8684 22.2502 62.677 22.8503 63.874 24.0503C65.0841 25.2378 65.6892 27.1441 65.6892 29.7692V43.1758H62.4493Z" fill="#0070D2"/>
<path d="M85.5383 43.1758L84.8942 40.2507H84.7381C83.6711 41.5383 82.6042 42.4133 81.5372 42.8758C80.4833 43.3258 79.1626 43.5508 77.5752 43.5508C75.4543 43.5508 73.7889 43.0258 72.5788 41.9758C71.3817 40.9258 70.7832 39.432 70.7832 37.4944C70.7832 33.3443 74.2378 31.1692 81.1469 30.9692L84.7771 30.8567V29.5817C84.7771 27.9691 84.4128 26.7816 83.6842 26.0191C82.9685 25.2441 81.817 24.8566 80.2296 24.8566C78.447 24.8566 76.4302 25.3816 74.1792 26.4316L73.1838 24.0503C74.2378 23.5003 75.3893 23.069 76.6384 22.7565C77.9005 22.444 79.1626 22.2877 80.4248 22.2877C82.975 22.2877 84.8617 22.8315 86.0848 23.919C87.3209 25.0066 87.9389 26.7504 87.9389 29.1504V43.1758H85.5383ZM78.2193 40.982C80.2361 40.982 81.817 40.4508 82.962 39.3882C84.12 38.3257 84.6991 36.8382 84.6991 34.9256V33.0693L81.4592 33.2005C78.8829 33.2881 77.0222 33.6756 75.8772 34.3631C74.7452 35.0381 74.1792 36.0944 74.1792 37.5319C74.1792 38.657 74.5305 39.5132 75.2331 40.1007C75.9488 40.6883 76.9442 40.982 78.2193 40.982Z" fill="#0070D2"/>
<path d="M104.392 22.2502C105.342 22.2502 106.194 22.3252 106.949 22.4752L106.5 25.3628C105.615 25.1753 104.834 25.0816 104.158 25.0816C102.427 25.0816 100.944 25.7566 99.7079 27.1066C98.4848 28.4567 97.8733 30.138 97.8733 32.1505V43.1758H94.6334V22.6252H97.3073L97.6781 26.4316H97.8342C98.6279 25.0941 99.5843 24.0628 100.703 23.3378C101.822 22.6127 103.052 22.2502 104.392 22.2502Z" fill="#0070D2"/>
<path d="M117.859 40.982C118.432 40.982 118.985 40.9445 119.518 40.8695C120.051 40.782 120.474 40.6945 120.787 40.607V42.9883C120.435 43.1508 119.915 43.2821 119.225 43.3821C118.549 43.4946 117.937 43.5508 117.391 43.5508C113.253 43.5508 111.184 41.457 111.184 37.2694V25.0441H108.12V23.544L111.184 22.2502L112.55 17.8626H114.424V22.6252H120.63V25.0441H114.424V37.1382C114.424 38.3757 114.73 39.3257 115.341 39.9882C115.953 40.6508 116.792 40.982 117.859 40.982Z" fill="#0070D2"/>
<path d="M200.793 43.1758V29.8817C200.793 28.2067 200.396 26.9566 199.603 26.1316C198.809 25.3066 197.566 24.8941 195.875 24.8941C193.624 24.8941 191.978 25.4816 190.937 26.6566C189.909 27.8316 189.395 29.7567 189.395 32.4318V43.1758H186.155V14H189.395V22.8315C189.395 23.894 189.343 24.7753 189.239 25.4753H189.434C190.072 24.4878 190.976 23.7128 192.147 23.1503C193.331 22.5752 194.678 22.2877 196.187 22.2877C198.802 22.2877 200.761 22.8878 202.062 24.0878C203.376 25.2753 204.033 27.1691 204.033 29.7692V43.1758H200.793Z" fill="#0070D2"/>
<path d="M213.753 22.6252V35.9569C213.753 37.6319 214.15 38.882 214.943 39.707C215.737 40.532 216.98 40.9445 218.671 40.9445C220.909 40.9445 222.542 40.357 223.57 39.182C224.611 38.0069 225.131 36.0881 225.131 33.4256V22.6252H228.371V43.1758H225.697L225.229 40.4195H225.053C224.39 41.432 223.466 42.2071 222.282 42.7446C221.111 43.2821 219.771 43.5508 218.261 43.5508C215.659 43.5508 213.707 42.9571 212.406 41.7695C211.118 40.582 210.474 38.682 210.474 36.0694V22.6252H213.753Z" fill="#0070D2"/>
<path d="M245.215 22.2877C248.025 22.2877 250.205 23.2128 251.753 25.0628C253.314 26.9004 254.095 29.5067 254.095 32.8818C254.095 36.2569 253.308 38.882 251.733 40.757C250.172 42.6196 247.999 43.5508 245.215 43.5508C243.822 43.5508 242.547 43.3071 241.389 42.8196C240.244 42.3196 239.281 41.557 238.501 40.532H238.267L237.583 43.1758H235.261V14H238.501V21.0877C238.501 22.6752 238.449 24.1003 238.345 25.3628H238.501C240.01 23.3128 242.248 22.2877 245.215 22.2877ZM244.746 24.8941C242.534 24.8941 240.94 25.5066 239.965 26.7316C238.989 27.9441 238.501 29.9942 238.501 32.8818C238.501 35.7694 239.002 37.8382 240.004 39.0882C241.005 40.3258 242.612 40.9445 244.824 40.9445C246.815 40.9445 248.298 40.2507 249.274 38.8632C250.25 37.4632 250.738 35.4569 250.738 32.8443C250.738 30.1692 250.25 28.1754 249.274 26.8629C248.298 25.5503 246.789 24.8941 244.746 24.8941Z" fill="#0070D2"/>
<path fill-rule="evenodd" clip-rule="evenodd" d="M170.075 35.656L161.012 44.3629L158.496 41.9457L167.501 33.2943C168.257 32.5686 168.707 31.5679 168.707 30.534C168.707 29.4813 168.271 28.4674 167.489 27.7618L161.991 22.4795C161.236 21.7545 160.213 21.3379 159.175 21.3379C158.118 21.3379 157.081 21.7406 156.348 22.4913L147.297 31.1865L144.781 28.7693L148.908 24.8041L153.786 20.1178C155.23 18.7307 157.144 17.9653 159.175 17.9653C161.252 17.9653 163.16 18.7337 164.556 20.109L164.555 20.1091L164.565 20.1178L170.075 25.412C171.518 26.7979 172.299 28.6184 172.299 30.534C172.299 32.4935 171.515 34.3075 170.084 35.6473L170.084 35.6472L170.075 35.656ZM141.794 39.2726L141.794 39.2726L141.785 39.2638L136.274 33.9697C133.337 31.1478 133.337 26.5095 136.274 23.6872L136.274 23.6865L145.336 15.0173L147.854 17.4359L138.848 26.0873C137.255 27.6181 137.255 30.1165 138.848 31.6473L144.359 36.9414C145.114 37.6664 146.136 38.083 147.174 38.083C148.233 38.083 149.269 37.68 150.003 36.9288L159.054 28.1966L161.569 30.6124L152.564 39.2638L152.564 39.2638L152.555 39.2726C151.159 40.648 149.251 41.4163 147.174 41.4163C145.097 41.4163 143.19 40.648 141.794 39.2726Z" fill="#0070D2"/>
</svg>
