<svg width="676" height="229" viewBox="0 0 676 229" fill="none" xmlns="http://www.w3.org/2000/svg">
<path d="M244.663 -4.86088C260.31 10.7646 260.31 36.1219 244.663 51.7474L109.066 187.154C99.4622 196.744 93.9746 209.758 93.9746 222.773C93.9746 236.473 99.4622 249.487 109.066 258.392L201.668 350.864C211.271 360.454 224.305 365.934 237.338 365.934C251.056 365.934 264.089 360.454 273.007 350.864L408.683 215.379C424.3 199.784 449.596 199.784 465.212 215.378L475.141 225.293C490.788 240.918 490.788 266.276 475.141 281.901L339.543 417.308C312.106 444.707 275.751 459.777 237.338 459.777C198.239 459.777 161.883 444.707 135.131 417.308L42.5286 324.835C15.0908 297.436 8.34913e-05 261.132 8.68447e-05 222.773C9.02581e-05 183.729 15.0908 147.425 42.5287 120.711L178.206 -14.7754C193.822 -30.3698 219.118 -30.3698 234.734 -14.7753L244.663 -4.86088ZM439.006 15.2235C478.105 15.2235 514.46 30.2931 541.212 57.6924L633.814 150.165C690.062 206.333 690.062 298.806 633.814 354.974L498.137 489.894C482.512 505.432 457.261 505.406 441.668 489.835L431.68 479.861C416.033 464.235 416.033 438.878 431.68 423.253L567.278 287.846C587.17 267.982 587.17 235.788 567.278 215.923L474.675 123.451C465.072 113.861 452.039 108.381 439.006 108.381C425.287 108.381 412.254 113.861 403.336 123.451L267.66 259.504C252.053 275.154 226.711 275.18 211.072 259.563L201.202 249.707C185.555 234.082 185.555 208.724 201.203 193.099L336.8 57.6924C363.552 30.2931 399.907 15.2235 439.006 15.2235Z" fill="url(#paint0_linear)" fill-opacity="0.2"/>
<defs>
<linearGradient id="paint0_linear" x1="337.859" y1="385.643" x2="338" y2="79.0035" gradientUnits="userSpaceOnUse">
<stop offset="0.304868" stop-color="#088BFE"/>
<stop offset="1" stop-color="#0070D2" stop-opacity="0"/>
</linearGradient>
</defs>
</svg>
