<svg width="120" height="120" viewBox="0 0 120 120" fill="none" xmlns="http://www.w3.org/2000/svg">
<g clip-path="url(#clip0)">
<path d="M36.5 106.1L37.4 104.2C38.7 105.4 40.9 106.2 43.2 106.2C46.2 106.2 47.5 105 47.5 103.5C47.5 99.2 36.9 101.9 36.9 95.4C36.9 92.7 39 90.4 43.6 90.4C45.6 90.4 47.8 90.9 49.2 91.9L48.4 93.9C46.9 92.9 45.2 92.5 43.6 92.5C40.6 92.5 39.4 93.7 39.4 95.3C39.4 99.6 50 96.9 50 103.3C50 106 47.9 108.3 43.2 108.3C40.6 108.2 37.9 107.4 36.5 106.1Z" fill="#0070D2"/>
<path d="M52.1 106.1L53 104.2C54.3 105.4 56.5 106.2 58.8 106.2C61.8 106.2 63.1 105 63.1 103.5C63.1 99.2 52.5 101.9 52.5 95.4C52.5 92.7 54.6 90.4 59.2 90.4C61.2 90.4 63.4 90.9 64.8 91.9L64 93.9C62.5 92.9 60.8 92.5 59.2 92.5C56.2 92.5 55 93.7 55 95.3C55 99.6 65.6 96.9 65.6 103.3C65.6 106 63.4 108.3 58.8 108.3C56.1 108.2 53.5 107.4 52.1 106.1Z" fill="#0070D2"/>
<path d="M83.3 96.7C83.3 100.5 80.6 102.8 76 102.8H71.7V108H69.2V90.6H76C80.6 90.6 83.3 92.9 83.3 96.7ZM80.8 96.7C80.8 94.2 79.1 92.8 75.9 92.8H71.7V100.6H75.9C79.1 100.6 80.8 99.2 80.8 96.7Z" fill="#0070D2"/>
<path d="M60.5 70.8C60.2 70.8 59.9 70.7 59.6 70.6L36.1 58.1C35.5 57.8 35.1 57.2 35.1 56.5C35.1 55.8 35.5 55.2 36.1 54.9L59.6 42.3C60.1 42 60.8 42 61.3 42.3L84.1 54.9C84.7 55.2 85 55.8 85 56.5C85 57.2 84.6 57.8 84.1 58.1L61.4 70.6C61.1 70.8 60.8 70.8 60.5 70.8ZM37.3 56.4L60.5 68.8L82.9 56.4L60.5 44.1L37.3 56.4Z" fill="#0070D2"/>
<path d="M60.5 79.1C60.2 79.1 59.9 79 59.6 78.9L36 66.6C35.4 66.3 35 65.7 35 65V56.5H37V64.9L60.5 77.1L83.1 65V56.5H85.1V65.1C85.1 65.8 84.7 66.4 84.1 66.7L61.3 78.9C61.1 79.1 60.8 79.1 60.5 79.1Z" fill="#0070D2"/>
<path d="M61.4 69.7H59.4V78H61.4V69.7Z" fill="#0070D2"/>
<path d="M60.5 17.5C59.9 17.5 59.5 17.1 59.5 16.5V13C59.5 12.4 59.9 12 60.5 12C61.1 12 61.5 12.4 61.5 13V16.5C61.5 17 61.1 17.5 60.5 17.5Z" fill="#0070D2"/>
<path d="M60.5 37.9C59.9 37.9 59.5 37.5 59.5 36.9V21.8C59.5 21.2 59.9 20.8 60.5 20.8C61.1 20.8 61.5 21.2 61.5 21.8V36.9C61.5 37.4 61.1 37.9 60.5 37.9Z" fill="#0070D2"/>
<path d="M60.6 39.8001C60.3 39.8001 60 39.7001 59.8 39.4001L55.3 33.6001C55 33.2001 55 32.5001 55.5 32.2001C55.9 31.9001 56.6 31.9001 56.9 32.4001L60.6 37.2001L64.3 32.4001C64.6 32.0001 65.3 31.9001 65.7 32.2001C66.1 32.5001 66.2 33.2001 65.9 33.6001L61.4 39.4001C61.2 39.7001 60.9 39.8001 60.6 39.8001Z" fill="#0070D2"/>
<path d="M74.5 26.5C73.9 26.5 73.5 26.1 73.5 25.5V22C73.5 21.4 73.9 21 74.5 21C75.1 21 75.5 21.4 75.5 22V25.5C75.5 26 75.1 26.5 74.5 26.5Z" fill="#0070D2"/>
<path d="M74.5 46.9001C73.9 46.9001 73.5 46.5001 73.5 45.9001V30.8C73.5 30.2 73.9 29.8 74.5 29.8C75.1 29.8 75.5 30.2 75.5 30.8V45.9001C75.5 46.4001 75.1 46.9001 74.5 46.9001Z" fill="#0070D2"/>
<path d="M74.6 48.8001C74.3 48.8001 74 48.7001 73.8 48.4001L69.3 42.6001C69 42.2001 69 41.5001 69.5 41.2001C69.9 40.9001 70.6 40.9001 70.9 41.4001L74.6 46.2001L78.3 41.4001C78.6 41.0001 79.3 40.9001 79.7 41.2001C80.1 41.5001 80.2 42.2001 79.9 42.6001L75.4 48.4001C75.2 48.7001 74.9 48.8001 74.6 48.8001Z" fill="#0070D2"/>
<path d="M46.5 26.5C45.9 26.5 45.5 26.1 45.5 25.5V22C45.5 21.4 45.9 21 46.5 21C47.1 21 47.5 21.4 47.5 22V25.5C47.5 26 47.1 26.5 46.5 26.5Z" fill="#0070D2"/>
<path d="M46.5 46.9001C45.9 46.9001 45.5 46.5001 45.5 45.9001V30.8C45.5 30.2 45.9 29.8 46.5 29.8C47.1 29.8 47.5 30.2 47.5 30.8V45.9001C47.5 46.4001 47.1 46.9001 46.5 46.9001Z" fill="#0070D2"/>
<path d="M46.6 48.8001C46.3 48.8001 46 48.7001 45.8 48.4001L41.3 42.6001C41 42.2001 41 41.5001 41.5 41.2001C41.9 40.9001 42.6 40.9001 42.9 41.4001L46.6 46.2001L50.3 41.4001C50.6 41.0001 51.3 40.9001 51.7 41.2001C52.1 41.5001 52.2 42.2001 51.9 42.6001L47.4 48.4001C47.2 48.7001 46.9 48.8001 46.6 48.8001Z" fill="#0070D2"/>
</g>
<defs>
<clipPath id="clip0">
<rect width="50.1" height="96.2" fill="white" transform="translate(35 12)"/>
</clipPath>
</defs>
</svg>
