<svg width="120" height="120" viewBox="0 0 120 120" fill="none" xmlns="http://www.w3.org/2000/svg">
<g clip-path="url(#clip0)">
<path d="M36.6 90.6H44C49.6 90.6 53.4 94.1 53.4 99.3C53.4 104.5 49.6 108 43.9 108H36.6V90.6ZM43.8 105.9C48.1 105.9 50.9 103.3 50.9 99.3C50.9 95.4 48.1 92.7 43.8 92.7H39.1V105.8H43.8V105.9Z" fill="#0070D2"/>
<path d="M55.6 106.1L56.5 104.2C57.8 105.4 60 106.2 62.3 106.2C65.3 106.2 66.6 105 66.6 103.5C66.6 99.2 56 101.9 56 95.4C56 92.7 58.1 90.4 62.7 90.4C64.7 90.4 66.9 90.9 68.3 91.9L67.5 93.9C66 92.9 64.3 92.5 62.7 92.5C59.7 92.5 58.5 93.7 58.5 95.3C58.5 99.6 69.1 96.9 69.1 103.3C69.1 106 66.9 108.3 62.3 108.3C59.7 108.2 57 107.4 55.6 106.1Z" fill="#0070D2"/>
<path d="M86.9 96.7C86.9 100.5 84.2 102.8 79.6 102.8H75.3V108H72.8V90.6H79.6C84.1 90.6 86.9 92.9 86.9 96.7ZM84.4 96.7C84.4 94.2 82.7 92.8 79.5 92.8H75.3V100.6H79.5C82.7 100.6 84.4 99.2 84.4 96.7Z" fill="#0070D2"/>
<path d="M59.5 70.8C59.2 70.8 58.9 70.7 58.6 70.6L35.1 58.1C34.5 57.8 34.1 57.2 34.1 56.5C34.1 55.8 34.5 55.2 35.1 54.9L58.6 42.3C59.1 42 59.8 42 60.3 42.3L83.1 54.9C83.7 55.2 84 55.8 84 56.5C84 57.2 83.6 57.8 83.1 58.1L60.4 70.6C60.1 70.8 59.8 70.8 59.5 70.8ZM36.3 56.4L59.5 68.8L81.9 56.4L59.5 44.1L36.3 56.4Z" fill="#0070D2"/>
<path d="M59.5 79.1C59.2 79.1 58.9 79 58.6 78.9L35 66.6C34.4 66.3 34 65.7 34 65V56.5H36V64.9L59.5 77.1L82.1 65V56.5H84.1V65.1C84.1 65.8 83.7 66.4 83.1 66.7L60.3 78.9C60.1 79.1 59.8 79.1 59.5 79.1Z" fill="#0070D2"/>
<path d="M60.4 69.7H58.4V78H60.4V69.7Z" fill="#0070D2"/>
<path d="M59.6 39.8C59 39.8 58.6 39.4 58.6 38.8V35.3C58.6 34.7 59 34.3 59.6 34.3C60.2 34.3 60.6 34.7 60.6 35.3V38.8C60.6 39.4 60.1 39.8 59.6 39.8Z" fill="#0070D2"/>
<path d="M59.6 31C59 31 58.6 30.6 58.6 30V14.9C58.6 14.3 59 13.9 59.6 13.9C60.2 13.9 60.6 14.3 60.6 14.9V30C60.6 30.6 60.1 31 59.6 31Z" fill="#0070D2"/>
<path d="M64.1 19.8C63.8 19.8 63.5 19.7 63.3 19.4L59.6 14.6L55.9 19.4C55.6 19.8 54.9 19.9 54.5 19.6C54.1 19.3 54 18.6 54.3 18.2L58.8 12.4C59 12.1 59.3 12 59.6 12C59.9 12 60.2 12.1 60.4 12.4L64.9 18.2C65.2 18.6 65.2 19.3 64.7 19.6C64.5 19.8 64.3 19.8 64.1 19.8Z" fill="#0070D2"/>
<path d="M45.6 50.8C45 50.8 44.6 50.4 44.6 49.8V46.3C44.6 45.7 45 45.3 45.6 45.3C46.2 45.3 46.6 45.7 46.6 46.3V49.8C46.6 50.4 46.1 50.8 45.6 50.8Z" fill="#0070D2"/>
<path d="M45.6 42C45 42 44.6 41.6 44.6 41V25.9C44.6 25.3 45 24.9 45.6 24.9C46.2 24.9 46.6 25.3 46.6 25.9V41C46.6 41.6 46.1 42 45.6 42Z" fill="#0070D2"/>
<path d="M50.1 30.8C49.8 30.8 49.5 30.7 49.3 30.4L45.6 25.6L41.9 30.4C41.6 30.8 40.9 30.9 40.5 30.6C40.1 30.3 40 29.6 40.3 29.2L44.8 23.4C45 23.2 45.3 23 45.6 23C45.9 23 46.2 23.1 46.4 23.4L50.9 29.2C51.2 29.6 51.2 30.3 50.7 30.6C50.5 30.8 50.3 30.8 50.1 30.8Z" fill="#0070D2"/>
<path d="M73.6 50.8C73 50.8 72.6 50.4 72.6 49.8V46.3C72.6 45.7 73 45.3 73.6 45.3C74.2 45.3 74.6 45.7 74.6 46.3V49.8C74.6 50.4 74.1 50.8 73.6 50.8Z" fill="#0070D2"/>
<path d="M73.6 42C73 42 72.6 41.6 72.6 41V25.9C72.6 25.3 73 24.9 73.6 24.9C74.2 24.9 74.6 25.3 74.6 25.9V41C74.6 41.6 74.1 42 73.6 42Z" fill="#0070D2"/>
<path d="M78.1 30.8C77.8 30.8 77.5 30.7 77.3 30.4L73.6 25.6L69.9 30.4C69.6 30.8 68.9 30.9 68.5 30.6C68.1 30.3 68 29.6 68.3 29.2L72.8 23.4C73 23.2 73.3 23 73.6 23C73.9 23 74.2 23.1 74.4 23.4L78.9 29.2C79.2 29.6 79.2 30.3 78.7 30.6C78.5 30.8 78.3 30.8 78.1 30.8Z" fill="#0070D2"/>
</g>
<defs>
<clipPath id="clip0">
<rect width="52.9" height="96.2" fill="white" transform="translate(34 12)"/>
</clipPath>
</defs>
</svg>
