<svg width="120" height="120" viewBox="0 0 120 120" fill="none" xmlns="http://www.w3.org/2000/svg">
<path d="M48.0814 75.8532C48.229 76.0003 48.3766 76.0003 48.6718 76.0003C48.967 76.0003 49.1146 76.0003 49.2622 75.8532L74.7978 61.1473C75.093 61.0002 75.3882 60.5591 75.3882 60.265C75.3882 59.8238 75.2406 59.5297 74.7978 59.3826L49.2622 44.6767C48.967 44.5296 48.5242 44.5296 48.0814 44.6767C47.7862 44.8238 47.491 45.2649 47.491 45.5591V74.8238C47.491 75.412 47.7862 75.7061 48.0814 75.8532ZM49.705 47.6179L71.8457 60.412L49.705 73.2061V47.6179Z" fill="white"/>
<path d="M48.0814 75.8532C48.229 76.0003 48.3766 76.0003 48.6718 76.0003C48.967 76.0003 49.1146 76.0003 49.2622 75.8532L74.7978 61.1473C75.093 61.0002 75.3882 60.5591 75.3882 60.265C75.3882 59.8238 75.2406 59.5297 74.7978 59.3826L49.2622 44.6767C48.967 44.5296 48.5242 44.5296 48.0814 44.6767C47.7862 44.8238 47.491 45.2649 47.491 45.5591V74.8238C47.491 75.412 47.7862 75.7061 48.0814 75.8532ZM49.705 47.6179L71.8457 60.412L49.705 73.2061V47.6179Z" fill="url(#paint0_linear)"/>
<path d="M105.057 21.0005H11.1812C10.5908 21.0005 10.0004 21.4417 10.0004 22.177V94.9712C10.0004 95.5594 10.4432 96.1476 11.1812 96.1476C11.7716 96.1476 12.362 95.7065 12.362 94.9712V23.2064H104.024V94.9712C104.024 95.5594 104.467 96.1476 105.205 96.1476C105.795 96.1476 106.386 95.7065 106.386 94.9712V22.177C106.091 21.4417 105.648 21.0005 105.057 21.0005Z" fill="white"/>
<path d="M105.057 21.0005H11.1812C10.5908 21.0005 10.0004 21.4417 10.0004 22.177V94.9712C10.0004 95.5594 10.4432 96.1476 11.1812 96.1476C11.7716 96.1476 12.362 95.7065 12.362 94.9712V23.2064H104.024V94.9712C104.024 95.5594 104.467 96.1476 105.205 96.1476C105.795 96.1476 106.386 95.7065 106.386 94.9712V22.177C106.091 21.4417 105.648 21.0005 105.057 21.0005Z" fill="url(#paint1_linear)"/>
<path d="M96.9384 93.7949H48.6718C48.0814 93.7949 47.491 94.2361 47.491 94.9714C47.491 95.5596 47.9338 96.1478 48.6718 96.1478H96.9384C97.5288 96.1478 98.1192 95.7067 98.1192 94.9714C98.1192 94.3832 97.5288 93.7949 96.9384 93.7949Z" fill="white"/>
<path d="M96.9384 93.7949H48.6718C48.0814 93.7949 47.491 94.2361 47.491 94.9714C47.491 95.5596 47.9338 96.1478 48.6718 96.1478H96.9384C97.5288 96.1478 98.1192 95.7067 98.1192 94.9714C98.1192 94.3832 97.5288 93.7949 96.9384 93.7949Z" fill="url(#paint2_linear)"/>
<path d="M35.9776 88.9419C33.0255 88.9419 30.6638 91.0007 30.0734 93.7948H19.0031C18.4127 93.7948 17.8223 94.236 17.8223 94.9713C17.8223 95.5595 18.2651 96.1478 19.0031 96.1478H29.9258C30.5162 98.9419 32.8779 101.001 35.83 101.001C39.0773 101.001 41.8818 98.3537 41.8818 94.9713C41.8818 91.589 39.2249 88.9419 35.9776 88.9419ZM35.9776 98.6478C33.9111 98.6478 32.1399 96.8831 32.1399 94.8243C32.1399 92.7654 33.9111 91.0007 35.9776 91.0007C38.044 91.0007 39.8153 92.7654 39.8153 94.8243C39.6677 97.0301 38.044 98.6478 35.9776 98.6478Z" fill="white"/>
<path d="M35.9776 88.9419C33.0255 88.9419 30.6638 91.0007 30.0734 93.7948H19.0031C18.4127 93.7948 17.8223 94.236 17.8223 94.9713C17.8223 95.5595 18.2651 96.1478 19.0031 96.1478H29.9258C30.5162 98.9419 32.8779 101.001 35.83 101.001C39.0773 101.001 41.8818 98.3537 41.8818 94.9713C41.8818 91.589 39.2249 88.9419 35.9776 88.9419ZM35.9776 98.6478C33.9111 98.6478 32.1399 96.8831 32.1399 94.8243C32.1399 92.7654 33.9111 91.0007 35.9776 91.0007C38.044 91.0007 39.8153 92.7654 39.8153 94.8243C39.6677 97.0301 38.044 98.6478 35.9776 98.6478Z" fill="url(#paint3_linear)"/>
<path d="M48.0814 75.8532C48.229 76.0003 48.3766 76.0003 48.6718 76.0003C48.967 76.0003 49.1146 76.0003 49.2622 75.8532L74.7978 61.1473C75.093 61.0002 75.3882 60.5591 75.3882 60.265C75.3882 59.8238 75.2406 59.5297 74.7978 59.3826L49.2622 44.6767C48.967 44.5296 48.5242 44.5296 48.0814 44.6767C47.7862 44.8238 47.491 45.2649 47.491 45.5591V74.8238C47.491 75.412 47.7862 75.7061 48.0814 75.8532ZM49.705 47.6179L71.8457 60.412L49.705 73.2061V47.6179Z" fill="white"/>
<path d="M48.0814 75.8532C48.229 76.0003 48.3766 76.0003 48.6718 76.0003C48.967 76.0003 49.1146 76.0003 49.2622 75.8532L74.7978 61.1473C75.093 61.0002 75.3882 60.5591 75.3882 60.265C75.3882 59.8238 75.2406 59.5297 74.7978 59.3826L49.2622 44.6767C48.967 44.5296 48.5242 44.5296 48.0814 44.6767C47.7862 44.8238 47.491 45.2649 47.491 45.5591V74.8238C47.491 75.412 47.7862 75.7061 48.0814 75.8532ZM49.705 47.6179L71.8457 60.412L49.705 73.2061V47.6179Z" fill="url(#paint4_linear)"/>
<path d="M105.057 21.0005H11.1812C10.5908 21.0005 10.0004 21.4417 10.0004 22.177V94.9712C10.0004 95.5594 10.4432 96.1476 11.1812 96.1476C11.7716 96.1476 12.362 95.7065 12.362 94.9712V23.2064H104.024V94.9712C104.024 95.5594 104.467 96.1476 105.205 96.1476C105.795 96.1476 106.386 95.7065 106.386 94.9712V22.177C106.091 21.4417 105.648 21.0005 105.057 21.0005Z" fill="white"/>
<path d="M105.057 21.0005H11.1812C10.5908 21.0005 10.0004 21.4417 10.0004 22.177V94.9712C10.0004 95.5594 10.4432 96.1476 11.1812 96.1476C11.7716 96.1476 12.362 95.7065 12.362 94.9712V23.2064H104.024V94.9712C104.024 95.5594 104.467 96.1476 105.205 96.1476C105.795 96.1476 106.386 95.7065 106.386 94.9712V22.177C106.091 21.4417 105.648 21.0005 105.057 21.0005Z" fill="url(#paint5_linear)"/>
<path d="M96.9384 93.7949H48.6718C48.0814 93.7949 47.491 94.2361 47.491 94.9714C47.491 95.5596 47.9338 96.1478 48.6718 96.1478H96.9384C97.5288 96.1478 98.1192 95.7067 98.1192 94.9714C98.1192 94.3832 97.5288 93.7949 96.9384 93.7949Z" fill="white"/>
<path d="M96.9384 93.7949H48.6718C48.0814 93.7949 47.491 94.2361 47.491 94.9714C47.491 95.5596 47.9338 96.1478 48.6718 96.1478H96.9384C97.5288 96.1478 98.1192 95.7067 98.1192 94.9714C98.1192 94.3832 97.5288 93.7949 96.9384 93.7949Z" fill="url(#paint6_linear)"/>
<path d="M35.9776 88.9419C33.0255 88.9419 30.6638 91.0007 30.0734 93.7948H19.0031C18.4127 93.7948 17.8223 94.236 17.8223 94.9713C17.8223 95.5595 18.2651 96.1478 19.0031 96.1478H29.9258C30.5162 98.9419 32.8779 101.001 35.83 101.001C39.0773 101.001 41.8818 98.3537 41.8818 94.9713C41.8818 91.589 39.2249 88.9419 35.9776 88.9419ZM35.9776 98.6478C33.9111 98.6478 32.1399 96.8831 32.1399 94.8243C32.1399 92.7654 33.9111 91.0007 35.9776 91.0007C38.044 91.0007 39.8153 92.7654 39.8153 94.8243C39.6677 97.0301 38.044 98.6478 35.9776 98.6478Z" fill="white"/>
<path d="M35.9776 88.9419C33.0255 88.9419 30.6638 91.0007 30.0734 93.7948H19.0031C18.4127 93.7948 17.8223 94.236 17.8223 94.9713C17.8223 95.5595 18.2651 96.1478 19.0031 96.1478H29.9258C30.5162 98.9419 32.8779 101.001 35.83 101.001C39.0773 101.001 41.8818 98.3537 41.8818 94.9713C41.8818 91.589 39.2249 88.9419 35.9776 88.9419ZM35.9776 98.6478C33.9111 98.6478 32.1399 96.8831 32.1399 94.8243C32.1399 92.7654 33.9111 91.0007 35.9776 91.0007C38.044 91.0007 39.8153 92.7654 39.8153 94.8243C39.6677 97.0301 38.044 98.6478 35.9776 98.6478Z" fill="url(#paint7_linear)"/>
<defs>
<linearGradient id="paint0_linear" x1="61.4396" y1="44.5664" x2="61.4396" y2="76.0003" gradientUnits="userSpaceOnUse">
<stop stop-color="white"/>
<stop offset="1" stop-color="white" stop-opacity="0"/>
</linearGradient>
<linearGradient id="paint1_linear" x1="58.1931" y1="21.0005" x2="58.1931" y2="96.1476" gradientUnits="userSpaceOnUse">
<stop stop-color="white"/>
<stop offset="1" stop-color="white" stop-opacity="0"/>
</linearGradient>
<linearGradient id="paint2_linear" x1="72.8051" y1="93.7949" x2="72.8051" y2="96.1478" gradientUnits="userSpaceOnUse">
<stop stop-color="white"/>
<stop offset="1" stop-color="white" stop-opacity="0"/>
</linearGradient>
<linearGradient id="paint3_linear" x1="29.852" y1="88.9419" x2="29.852" y2="101.001" gradientUnits="userSpaceOnUse">
<stop stop-color="white"/>
<stop offset="1" stop-color="white" stop-opacity="0"/>
</linearGradient>
<linearGradient id="paint4_linear" x1="61.4396" y1="44.5664" x2="61.4396" y2="76.0003" gradientUnits="userSpaceOnUse">
<stop stop-color="white"/>
<stop offset="1" stop-color="white" stop-opacity="0"/>
</linearGradient>
<linearGradient id="paint5_linear" x1="58.1931" y1="21.0005" x2="58.1931" y2="96.1476" gradientUnits="userSpaceOnUse">
<stop stop-color="white"/>
<stop offset="1" stop-color="white" stop-opacity="0"/>
</linearGradient>
<linearGradient id="paint6_linear" x1="72.8051" y1="93.7949" x2="72.8051" y2="96.1478" gradientUnits="userSpaceOnUse">
<stop stop-color="white"/>
<stop offset="1" stop-color="white" stop-opacity="0"/>
</linearGradient>
<linearGradient id="paint7_linear" x1="29.852" y1="88.9419" x2="29.852" y2="101.001" gradientUnits="userSpaceOnUse">
<stop stop-color="white"/>
<stop offset="1" stop-color="white" stop-opacity="0"/>
</linearGradient>
</defs>
</svg>
