<svg width="65" height="65" viewBox="0 0 65 65" fill="none" xmlns="http://www.w3.org/2000/svg">
<path fill-rule="evenodd" clip-rule="evenodd" d="M54.0418 19.6203H10.9585C8.915 19.6203 7.25845 21.2769 7.25845 23.3203V46.5994C7.25845 48.6429 8.91499 50.2994 10.9584 50.2994H54.0418C56.0852 50.2994 57.7418 48.6429 57.7418 46.5994V23.3203C57.7418 21.2769 56.0852 19.6203 54.0418 19.6203ZM10.9585 18.3203C8.19703 18.3203 5.95845 20.5589 5.95845 23.3203V46.5994C5.95845 49.3608 8.19702 51.5994 10.9584 51.5994H54.0418C56.8032 51.5994 59.0418 49.3608 59.0418 46.5994V23.3203C59.0418 20.5589 56.8032 18.3203 54.0418 18.3203H10.9585Z" fill="white"/>
<path fill-rule="evenodd" clip-rule="evenodd" d="M25.5767 51.3098C25.5767 51.9491 26.0265 52.4673 26.6384 52.4673H36.0549C36.6667 52.4673 37.1166 51.9491 37.1166 51.3098H38.2706C38.2706 52.5884 37.2786 53.6249 36.0549 53.6249H26.6384C25.4147 53.6249 24.4227 52.5884 24.4227 51.3098H25.5767Z" fill="white"/>
<rect x="20.4559" y="12.025" width="23.5107" height="4.48767" rx="2.24384" stroke="white" stroke-width="1.3"/>
<ellipse cx="23.2679" cy="14.269" rx="0.576993" ry="0.578767" fill="white"/>
</svg>
