<svg width="65" height="65" viewBox="0 0 65 65" fill="none" xmlns="http://www.w3.org/2000/svg">
<path fill-rule="evenodd" clip-rule="evenodd" d="M41.0042 12.7833H24.1041C22.9374 12.7833 21.9916 13.7291 21.9916 14.8958V50.1042C21.9916 51.2709 22.9374 52.2167 24.1041 52.2167H41.0042C42.1709 52.2167 43.1167 51.2709 43.1167 50.1042V14.8958C43.1167 13.7291 42.1709 12.7833 41.0042 12.7833ZM24.1041 11.375C22.1596 11.375 20.5833 12.9513 20.5833 14.8958V50.1042C20.5833 52.0487 22.1596 53.625 24.1041 53.625H41.0042C42.9487 53.625 44.525 52.0487 44.525 50.1042V14.8958C44.525 12.9513 42.9487 11.375 41.0042 11.375H24.1041Z" fill="white"/>
<path fill-rule="evenodd" clip-rule="evenodd" d="M41.0042 12.7833H24.1041C22.9374 12.7833 21.9916 13.7291 21.9916 14.8958V50.1042C21.9916 51.2709 22.9374 52.2167 24.1041 52.2167H41.0042C42.1709 52.2167 43.1167 51.2709 43.1167 50.1042V14.8958C43.1167 13.7291 42.1709 12.7833 41.0042 12.7833ZM24.1041 11.375C22.1596 11.375 20.5833 12.9513 20.5833 14.8958V50.1042C20.5833 52.0487 22.1596 53.625 24.1041 53.625H41.0042C42.9487 53.625 44.525 52.0487 44.525 50.1042V14.8958C44.525 12.9513 42.9487 11.375 41.0042 11.375H24.1041Z" fill="url(#paint0_linear)"/>
<rect x="21.6665" y="15.7083" width="21.6667" height="1.08333" fill="white"/>
<rect x="21.6665" y="15.7083" width="21.6667" height="1.08333" fill="url(#paint1_linear)"/>
<rect x="21.6665" y="48.2083" width="21.6667" height="1.08334" fill="white"/>
<rect x="21.6665" y="48.2083" width="21.6667" height="1.08334" fill="url(#paint2_linear)"/>
<ellipse cx="32.5549" cy="50.817" rx="0.704165" ry="0.704165" fill="white"/>
<ellipse cx="32.5549" cy="50.817" rx="0.704165" ry="0.704165" fill="url(#paint3_linear)"/>
<path fill-rule="evenodd" clip-rule="evenodd" d="M39.1503 27.4554C39.3328 27.5638 39.4447 27.7603 39.4447 27.9725V35.7904C39.4447 36.0105 39.3245 36.213 39.1313 36.3183L32.5162 39.9266C32.3298 40.0282 32.1037 40.0241 31.9212 39.9157C31.7387 39.8074 31.6268 39.6109 31.6268 39.3986V31.5808C31.6268 31.3607 31.747 31.1582 31.9402 31.0528L38.5553 27.4446C38.7416 27.343 38.9678 27.3471 39.1503 27.4554ZM32.8296 31.9378V38.3856L38.2419 35.4334V28.9856L32.8296 31.9378Z" fill="white"/>
<path fill-rule="evenodd" clip-rule="evenodd" d="M39.1503 27.4554C39.3328 27.5638 39.4447 27.7603 39.4447 27.9725V35.7904C39.4447 36.0105 39.3245 36.213 39.1313 36.3183L32.5162 39.9266C32.3298 40.0282 32.1037 40.0241 31.9212 39.9157C31.7387 39.8074 31.6268 39.6109 31.6268 39.3986V31.5808C31.6268 31.3607 31.747 31.1582 31.9402 31.0528L38.5553 27.4446C38.7416 27.343 38.9678 27.3471 39.1503 27.4554ZM32.8296 31.9378V38.3856L38.2419 35.4334V28.9856L32.8296 31.9378Z" fill="url(#paint4_linear)"/>
<path fill-rule="evenodd" clip-rule="evenodd" d="M25.0387 27.9556C25.0391 27.7359 25.1593 27.5339 25.3522 27.4288L31.9403 23.8363C32.1198 23.7385 32.3367 23.7385 32.5162 23.8364L39.1309 27.4446C39.3241 27.55 39.4447 27.7525 39.4447 27.9725C39.4447 28.1926 39.3241 28.3951 39.1309 28.5005L32.5162 32.1087C32.336 32.207 32.1182 32.2066 31.9383 32.1077L25.3503 28.4837C25.1578 28.3778 25.0383 28.1753 25.0387 27.9556ZM32.2294 30.8951L37.5871 27.9725L32.2281 25.0493L26.892 27.9591L32.2294 30.8951Z" fill="white"/>
<path fill-rule="evenodd" clip-rule="evenodd" d="M25.0387 27.9556C25.0391 27.7359 25.1593 27.5339 25.3522 27.4288L31.9403 23.8363C32.1198 23.7385 32.3367 23.7385 32.5162 23.8364L39.1309 27.4446C39.3241 27.55 39.4447 27.7525 39.4447 27.9725C39.4447 28.1926 39.3241 28.3951 39.1309 28.5005L32.5162 32.1087C32.336 32.207 32.1182 32.2066 31.9383 32.1077L25.3503 28.4837C25.1578 28.3778 25.0383 28.1753 25.0387 27.9556ZM32.2294 30.8951L37.5871 27.9725L32.2281 25.0493L26.892 27.9591L32.2294 30.8951Z" fill="url(#paint5_linear)"/>
<path fill-rule="evenodd" clip-rule="evenodd" d="M25.3061 27.4554C25.1236 27.5638 25.0117 27.7603 25.0117 27.9725V35.7904C25.0117 36.0105 25.1319 36.213 25.3251 36.3183L31.9402 39.9266C32.1266 40.0282 32.3527 40.0241 32.5352 39.9157C32.7177 39.8074 32.8296 39.6109 32.8296 39.3986V31.5808C32.8296 31.3607 32.7094 31.1582 32.5162 31.0528L25.9011 27.4446C25.7147 27.343 25.4886 27.3471 25.3061 27.4554ZM31.6268 31.9378V38.3856L26.2145 35.4334V28.9856L31.6268 31.9378Z" fill="white"/>
<path fill-rule="evenodd" clip-rule="evenodd" d="M25.3061 27.4554C25.1236 27.5638 25.0117 27.7603 25.0117 27.9725V35.7904C25.0117 36.0105 25.1319 36.213 25.3251 36.3183L31.9402 39.9266C32.1266 40.0282 32.3527 40.0241 32.5352 39.9157C32.7177 39.8074 32.8296 39.6109 32.8296 39.3986V31.5808C32.8296 31.3607 32.7094 31.1582 32.5162 31.0528L25.9011 27.4446C25.7147 27.343 25.4886 27.3471 25.3061 27.4554ZM31.6268 31.9378V38.3856L26.2145 35.4334V28.9856L31.6268 31.9378Z" fill="url(#paint6_linear)"/>
<defs>
<linearGradient id="paint0_linear" x1="32.5541" y1="11.375" x2="32.5541" y2="53.625" gradientUnits="userSpaceOnUse">
<stop stop-color="white"/>
<stop offset="1" stop-color="white" stop-opacity="0"/>
</linearGradient>
<linearGradient id="paint1_linear" x1="32.4998" y1="15.7083" x2="32.4998" y2="16.7916" gradientUnits="userSpaceOnUse">
<stop stop-color="white"/>
<stop offset="1" stop-color="white" stop-opacity="0"/>
</linearGradient>
<linearGradient id="paint2_linear" x1="32.4998" y1="48.2083" x2="32.4998" y2="49.2916" gradientUnits="userSpaceOnUse">
<stop stop-color="white"/>
<stop offset="1" stop-color="white" stop-opacity="0"/>
</linearGradient>
<linearGradient id="paint3_linear" x1="32.5549" y1="50.1128" x2="32.5549" y2="51.5211" gradientUnits="userSpaceOnUse">
<stop stop-color="white"/>
<stop offset="1" stop-color="white" stop-opacity="0"/>
</linearGradient>
<linearGradient id="paint4_linear" x1="32.2282" y1="23.7629" x2="32.2282" y2="40" gradientUnits="userSpaceOnUse">
<stop stop-color="white"/>
<stop offset="1" stop-color="white" stop-opacity="0"/>
</linearGradient>
<linearGradient id="paint5_linear" x1="32.2282" y1="23.7629" x2="32.2282" y2="40" gradientUnits="userSpaceOnUse">
<stop stop-color="white"/>
<stop offset="1" stop-color="white" stop-opacity="0"/>
</linearGradient>
<linearGradient id="paint6_linear" x1="32.2282" y1="23.7629" x2="32.2282" y2="40" gradientUnits="userSpaceOnUse">
<stop stop-color="white"/>
<stop offset="1" stop-color="white" stop-opacity="0"/>
</linearGradient>
</defs>
</svg>
