<svg width="24" height="25" viewBox="0 0 24 25" fill="none" xmlns="http://www.w3.org/2000/svg">
<path fill-rule="evenodd" clip-rule="evenodd" d="M5.78711 3.34393C5.78711 4.89878 4.67002 6.14292 2.87635 6.14292H2.84348C1.11647 6.14292 0 4.89878 0 3.34393C0 1.75619 1.15048 0.546875 2.91025 0.546875C4.67002 0.546875 5.75373 1.75619 5.78711 3.34393ZM5.44857 8.35312V24.5464H0.304443V8.35312H5.44857ZM23.9997 24.5464L24 15.2617C24 10.2879 21.4622 7.97294 18.0771 7.97294C15.3459 7.97294 14.1231 9.54466 13.4404 10.6473V8.35362H8.29565C8.36346 9.87311 8.29565 24.5469 8.29565 24.5469H13.4404V15.5032C13.4404 15.0193 13.4738 14.5365 13.6098 14.19C13.9816 13.2231 14.8281 12.2221 16.2492 12.2221C18.1114 12.2221 18.8558 13.707 18.8558 15.883V24.5464H23.9997Z" fill="#0070D2"/>
</svg>
