<svg width="120" height="120" viewBox="0 0 120 120" fill="none" xmlns="http://www.w3.org/2000/svg">
<g clip-path="url(#clip0)">
<path d="M89.9 36.8L89.8 36.2L89.3 36C74.4 30.7 60.5 23.2 60.3 23.1C60.1 23 59.9 23 59.7 23C59.5 23 59.2 23 59 23.1C58.9 23.2 44.9 30.7 30.1 36L29.5 36.2L29.4 36.8C29.3 37.3 23.2 82.9 59.1 96C59.2 96 59.3 96.1 59.4 96.1C59.5 96.1 59.6 96.1 59.7 96C95.6 82.9 90 37.2 89.9 36.8ZM59.5 93.9C27.7 82.1 30.8 42.9 31.3 37.6C45 32.7 57.7 26.1 59.7 25C61.7 26 74.4 32.7 88 37.6C88.5 42.9 91.2 82.1 59.5 93.9Z" fill="#0070D2"/>
<path d="M46.4 37.7C46.2 37.2 45.7 36.9 45.1 37.1L35.4 40.3C35 40.4 34.7 40.8 34.7 41.2V47.7C34.7 48.3 35.1 48.7 35.7 48.7C36.3 48.7 36.7 48.3 36.7 47.7V42L45.7 39C46.3 38.7 46.6 38.2 46.4 37.7Z" fill="#0070D2"/>
<path d="M78.2 73.7C77.7 73.5 77.1 73.7 76.9 74.1C76.9 74.1 75.8 76.2 72.8 79.2C69.8 82.2 67.7 83.3 67.7 83.3C67.2 83.5 67 84.1 67.3 84.6C67.5 85 67.8 85.2 68.2 85.2C68.4 85.2 68.5 85.2 68.6 85.1C68.7 85.1 70.9 83.9 74.2 80.6C77.5 77.3 78.6 75.1 78.7 75C78.9 74.5 78.7 73.9 78.2 73.7Z" fill="#0070D2"/>
<path d="M49.8 38C50.4 38 50.9 37.5 50.9 36.9C50.9 36.3 50.4 35.8 49.8 35.8C49.2 35.8 48.7 36.3 48.7 36.9C48.7 37.5 49.2 38 49.8 38Z" fill="#0070D2"/>
<path d="M64.4 84.4C63.9 84.7 63.7 85.3 63.9 85.8C64.2 86.3 64.8 86.5 65.3 86.3C65.8 86.1 66 85.4 65.8 84.9C65.5 84.3 64.9 84.1 64.4 84.4Z" fill="#0070D2"/>
<path d="M77.7 44.8L52 70.4L44 62.4C43.6 62 43 62 42.6 62.4C42.2 62.8 42.2 63.4 42.6 63.8L51.3 72.5C51.5 72.7 51.8 72.8 52 72.8C52.2 72.8 52.5 72.7 52.7 72.5L79.1 46.1C79.5 45.7 79.5 45.1 79.1 44.7C78.7 44.3 78.1 44.4 77.7 44.8Z" fill="#0070D2"/>
</g>
<defs>
<clipPath id="clip0">
<rect width="61.3" height="73" fill="white" transform="translate(29 23)"/>
</clipPath>
</defs>
</svg>
