<svg width="1091" height="614" viewBox="0 0 1091 614" fill="none" xmlns="http://www.w3.org/2000/svg">
<path d="M422.857 -51.3336C432.661 -41.5261 432.661 -25.6287 422.857 -15.8213L176.021 231.103C160.522 246.607 151.666 267.648 151.666 288.69C151.666 310.839 160.522 331.88 176.021 346.277L325.473 495.783C340.972 511.287 362.006 520.146 383.04 520.146C405.181 520.147 426.215 511.287 440.607 495.783L687.43 248.871C697.239 239.059 713.146 239.059 722.955 248.871L794.826 320.769C804.63 330.576 804.63 346.474 794.827 356.281L547.991 603.205C503.709 647.503 445.035 671.867 383.04 671.867C319.938 671.867 261.264 647.503 218.089 603.205L68.637 453.7C24.3549 409.402 -8.58315e-05 350.707 -8.04198e-05 288.69C-7.49115e-05 225.565 24.3549 166.871 68.637 123.68L315.46 -123.231C325.269 -133.043 341.176 -133.043 350.985 -123.231L422.857 -51.3336ZM708.513 -46.8668C771.615 -46.8668 830.289 -22.5029 873.464 21.795L1022.92 171.3C1113.69 262.111 1113.69 411.617 1022.92 502.427L776.093 748.306C766.278 758.083 750.4 758.066 740.606 748.268L668.696 676.334C658.892 666.526 658.892 650.629 668.696 640.821L915.532 393.898C947.637 361.782 947.637 309.731 915.532 277.615L766.08 128.11C750.581 112.606 729.547 103.746 708.513 103.746C686.372 103.746 665.338 112.606 650.947 128.11L404.124 376.054C394.321 385.902 378.385 385.918 368.561 376.091L296.727 304.231C286.923 294.424 286.923 278.526 296.727 268.719L543.563 21.795C586.738 -22.5029 645.412 -46.8668 708.513 -46.8668Z" fill="url(#paint0_linear)" fill-opacity="0.2"/>
<defs>
<linearGradient id="paint0_linear" x1="545.272" y1="552.011" x2="545.5" y2="56.2498" gradientUnits="userSpaceOnUse">
<stop offset="0.304868" stop-color="#088BFE"/>
<stop offset="1" stop-color="#0070D2" stop-opacity="0"/>
</linearGradient>
</defs>
</svg>
