<svg width="120" height="120" viewBox="0 0 120 120" fill="none" xmlns="http://www.w3.org/2000/svg">
<g clip-path="url(#clip0)">
<path d="M31.4502 98.0768C31.4502 92.2791 35.7996 88.1538 41.8219 88.1538C44.8331 88.1538 47.3982 89.1573 49.1825 91.1642L47.3982 92.9481C45.9483 91.3871 44.0524 90.6067 41.9335 90.6067C37.584 90.6067 34.2383 93.7285 34.2383 98.0768C34.2383 102.425 37.4725 105.547 41.9335 105.547C44.0524 105.547 45.9483 104.766 47.3982 103.206L49.1825 104.989C47.3982 106.996 44.8331 108 41.7104 108C35.9112 108 31.4502 103.874 31.4502 98.0768Z" fill="white"/>
<path d="M31.4502 98.0768C31.4502 92.2791 35.7996 88.1538 41.8219 88.1538C44.8331 88.1538 47.3982 89.1573 49.1825 91.1642L47.3982 92.9481C45.9483 91.3871 44.0524 90.6067 41.9335 90.6067C37.584 90.6067 34.2383 93.7285 34.2383 98.0768C34.2383 102.425 37.4725 105.547 41.9335 105.547C44.0524 105.547 45.9483 104.766 47.3982 103.206L49.1825 104.989C47.3982 106.996 44.8331 108 41.7104 108C35.9112 108 31.4502 103.874 31.4502 98.0768Z" fill="url(#paint0_linear)"/>
<path d="M69.0339 95.0663C69.0339 99.3031 66.0227 101.867 60.8926 101.867H56.0971V107.777H53.309V88.2651H60.8926C65.9112 88.2651 69.0339 90.8295 69.0339 95.0663ZM66.2458 95.0663C66.2458 92.2789 64.3499 90.718 60.7811 90.718H56.0971V99.4146H60.7811C64.3499 99.5261 66.2458 97.8536 66.2458 95.0663Z" fill="white"/>
<path d="M69.0339 95.0663C69.0339 99.3031 66.0227 101.867 60.8926 101.867H56.0971V107.777H53.309V88.2651H60.8926C65.9112 88.2651 69.0339 90.8295 69.0339 95.0663ZM66.2458 95.0663C66.2458 92.2789 64.3499 90.718 60.7811 90.718H56.0971V99.4146H60.7811C64.3499 99.5261 66.2458 97.8536 66.2458 95.0663Z" fill="url(#paint1_linear)"/>
<path d="M71.822 98.0768C71.822 92.2791 76.1714 88.1538 82.1937 88.1538C85.2049 88.1538 87.7699 89.1573 89.5543 91.1642L87.7699 92.9481C86.3201 91.3871 84.4242 90.6067 82.3052 90.6067C77.9558 90.6067 74.6101 93.7285 74.6101 98.0768C74.6101 102.425 77.8443 105.547 82.3052 105.547C84.4242 105.547 86.3201 104.766 87.7699 103.206L89.5543 104.989C87.7699 106.996 85.2049 108 82.0822 108C76.1714 108 71.822 103.874 71.822 98.0768Z" fill="white"/>
<path d="M71.822 98.0768C71.822 92.2791 76.1714 88.1538 82.1937 88.1538C85.2049 88.1538 87.7699 89.1573 89.5543 91.1642L87.7699 92.9481C86.3201 91.3871 84.4242 90.6067 82.3052 90.6067C77.9558 90.6067 74.6101 93.7285 74.6101 98.0768C74.6101 102.425 77.8443 105.547 82.3052 105.547C84.4242 105.547 86.3201 104.766 87.7699 103.206L89.5543 104.989C87.7699 106.996 85.2049 108 82.0822 108C76.1714 108 71.822 103.874 71.822 98.0768Z" fill="url(#paint2_linear)"/>
<path d="M70.3721 70.9839C70.2606 70.9839 70.2606 70.9839 70.1491 70.9839C69.8145 70.8724 69.4799 70.6494 69.3684 70.4264L50.9669 32.7414C50.7439 32.2954 50.8554 31.7379 51.19 31.4035C51.5246 31.069 52.0822 30.9575 52.5283 31.1805L89.3312 50.246C89.6658 50.3575 89.8889 50.692 89.8889 51.0264C89.8889 51.3609 89.7773 51.6954 89.5543 52.0299L84.4242 57.1586L88.6621 61.3954C88.8852 61.6184 88.9967 61.8414 88.9967 62.1759C88.9967 62.5104 88.8852 62.7333 88.6621 62.9563L81.9707 69.646C81.5246 70.092 80.8554 70.092 80.4093 69.646L76.1714 65.4092L71.0413 70.5379C70.9298 70.8724 70.7067 70.9839 70.3721 70.9839ZM54.5357 34.8598L70.7067 67.9736L75.5023 63.1793C75.9483 62.7333 76.6175 62.7333 77.0636 63.1793L81.3015 67.4161L86.4316 62.2874L82.1937 58.0506C81.9707 57.8276 81.8591 57.6046 81.8591 57.2701C81.8591 56.9356 81.9707 56.7127 82.1937 56.4897L86.9892 51.6954L54.5357 34.8598Z" fill="white"/>
<path d="M70.3721 70.9839C70.2606 70.9839 70.2606 70.9839 70.1491 70.9839C69.8145 70.8724 69.4799 70.6494 69.3684 70.4264L50.9669 32.7414C50.7439 32.2954 50.8554 31.7379 51.19 31.4035C51.5246 31.069 52.0822 30.9575 52.5283 31.1805L89.3312 50.246C89.6658 50.3575 89.8889 50.692 89.8889 51.0264C89.8889 51.3609 89.7773 51.6954 89.5543 52.0299L84.4242 57.1586L88.6621 61.3954C88.8852 61.6184 88.9967 61.8414 88.9967 62.1759C88.9967 62.5104 88.8852 62.7333 88.6621 62.9563L81.9707 69.646C81.5246 70.092 80.8554 70.092 80.4093 69.646L76.1714 65.4092L71.0413 70.5379C70.9298 70.8724 70.7067 70.9839 70.3721 70.9839ZM54.5357 34.8598L70.7067 67.9736L75.5023 63.1793C75.9483 62.7333 76.6175 62.7333 77.0636 63.1793L81.3015 67.4161L86.4316 62.2874L82.1937 58.0506C81.9707 57.8276 81.8591 57.6046 81.8591 57.2701C81.8591 56.9356 81.9707 56.7127 82.1937 56.4897L86.9892 51.6954L54.5357 34.8598Z" fill="url(#paint3_linear)"/>
<path d="M55.9855 63.1793C49.1825 63.1793 42.4911 60.5034 37.584 55.5977C32.6769 50.5805 30.0004 44.0023 30.0004 37.0897C30.0004 30.177 32.6769 23.5989 37.584 18.6931C42.6026 13.6759 49.071 11 56.097 11C63.123 11 69.5914 13.6759 74.4985 18.6931C80.5208 24.7138 83.1974 33.2989 81.7476 41.6609C81.6361 42.2184 81.0784 42.6644 80.4093 42.5529C79.8517 42.4414 79.4056 41.8839 79.5171 41.2149C80.8554 33.5218 78.4019 25.7172 72.9372 20.254C68.4762 15.7943 62.4539 13.2299 56.097 13.2299C49.7401 13.2299 43.7178 15.6828 39.2569 20.254C34.7959 24.7138 32.2308 30.7345 32.2308 37.0897C32.2308 43.4448 34.6844 49.4655 39.2569 53.9253C44.9446 59.6115 53.0859 62.0644 60.8926 60.392C61.4502 60.2805 62.1193 60.6149 62.2309 61.2839C62.3424 61.8414 62.0078 62.5103 61.3387 62.6218C59.5543 62.9563 57.7699 63.1793 55.9855 63.1793Z" fill="white"/>
<path d="M55.9855 63.1793C49.1825 63.1793 42.4911 60.5034 37.584 55.5977C32.6769 50.5805 30.0004 44.0023 30.0004 37.0897C30.0004 30.177 32.6769 23.5989 37.584 18.6931C42.6026 13.6759 49.071 11 56.097 11C63.123 11 69.5914 13.6759 74.4985 18.6931C80.5208 24.7138 83.1974 33.2989 81.7476 41.6609C81.6361 42.2184 81.0784 42.6644 80.4093 42.5529C79.8517 42.4414 79.4056 41.8839 79.5171 41.2149C80.8554 33.5218 78.4019 25.7172 72.9372 20.254C68.4762 15.7943 62.4539 13.2299 56.097 13.2299C49.7401 13.2299 43.7178 15.6828 39.2569 20.254C34.7959 24.7138 32.2308 30.7345 32.2308 37.0897C32.2308 43.4448 34.6844 49.4655 39.2569 53.9253C44.9446 59.6115 53.0859 62.0644 60.8926 60.392C61.4502 60.2805 62.1193 60.6149 62.2309 61.2839C62.3424 61.8414 62.0078 62.5103 61.3387 62.6218C59.5543 62.9563 57.7699 63.1793 55.9855 63.1793Z" fill="url(#paint4_linear)"/>
<path d="M56.097 54.8172C51.413 54.8172 46.9521 52.9218 43.6063 49.577C36.9149 42.8873 36.5803 32.1839 42.9372 25.1597C43.1602 24.9368 43.3833 24.7138 43.6063 24.4908C44.164 23.9333 44.9446 23.2643 45.6138 22.7069C52.7513 17.4666 62.4539 18.2471 68.6993 24.4908C72.1565 27.9471 73.9409 32.5184 73.9409 37.3126C73.9409 37.8701 73.3833 38.4276 72.8257 38.4276C72.1565 38.4276 71.7104 37.8701 71.7104 37.3126C71.8219 33.0758 70.1491 29.062 67.1379 26.1632C61.6732 20.7 53.1974 20.031 46.9521 24.6023C46.2829 25.0482 45.7253 25.6057 45.1677 26.1632C44.9446 26.3862 44.8331 26.4977 44.61 26.7207C39.0338 32.8528 39.2569 42.2184 45.1677 48.1276C48.4019 51.3609 52.7513 52.9218 57.3238 52.5873C57.9929 52.5873 58.439 53.0333 58.5506 53.5908C58.6621 54.1483 58.1045 54.7057 57.5469 54.8172C56.8777 54.8172 56.5431 54.8172 56.097 54.8172Z" fill="white"/>
<path d="M56.097 54.8172C51.413 54.8172 46.9521 52.9218 43.6063 49.577C36.9149 42.8873 36.5803 32.1839 42.9372 25.1597C43.1602 24.9368 43.3833 24.7138 43.6063 24.4908C44.164 23.9333 44.9446 23.2643 45.6138 22.7069C52.7513 17.4666 62.4539 18.2471 68.6993 24.4908C72.1565 27.9471 73.9409 32.5184 73.9409 37.3126C73.9409 37.8701 73.3833 38.4276 72.8257 38.4276C72.1565 38.4276 71.7104 37.8701 71.7104 37.3126C71.8219 33.0758 70.1491 29.062 67.1379 26.1632C61.6732 20.7 53.1974 20.031 46.9521 24.6023C46.2829 25.0482 45.7253 25.6057 45.1677 26.1632C44.9446 26.3862 44.8331 26.4977 44.61 26.7207C39.0338 32.8528 39.2569 42.2184 45.1677 48.1276C48.4019 51.3609 52.7513 52.9218 57.3238 52.5873C57.9929 52.5873 58.439 53.0333 58.5506 53.5908C58.6621 54.1483 58.1045 54.7057 57.5469 54.8172C56.8777 54.8172 56.5431 54.8172 56.097 54.8172Z" fill="url(#paint5_linear)"/>
</g>
<defs>
<linearGradient id="paint0_linear" x1="40.3164" y1="88.1538" x2="40.3164" y2="108" gradientUnits="userSpaceOnUse">
<stop stop-color="white"/>
<stop offset="1" stop-color="white" stop-opacity="0"/>
</linearGradient>
<linearGradient id="paint1_linear" x1="61.1714" y1="88.2651" x2="61.1714" y2="107.777" gradientUnits="userSpaceOnUse">
<stop stop-color="white"/>
<stop offset="1" stop-color="white" stop-opacity="0"/>
</linearGradient>
<linearGradient id="paint2_linear" x1="80.6881" y1="88.1538" x2="80.6881" y2="108" gradientUnits="userSpaceOnUse">
<stop stop-color="white"/>
<stop offset="1" stop-color="white" stop-opacity="0"/>
</linearGradient>
<linearGradient id="paint3_linear" x1="70.3699" y1="31.0645" x2="70.3699" y2="70.9839" gradientUnits="userSpaceOnUse">
<stop stop-color="white"/>
<stop offset="1" stop-color="white" stop-opacity="0"/>
</linearGradient>
<linearGradient id="paint4_linear" x1="56.0672" y1="11" x2="56.0672" y2="63.1793" gradientUnits="userSpaceOnUse">
<stop stop-color="white"/>
<stop offset="1" stop-color="white" stop-opacity="0"/>
</linearGradient>
<linearGradient id="paint5_linear" x1="56.1562" y1="19.2388" x2="56.1562" y2="54.8172" gradientUnits="userSpaceOnUse">
<stop stop-color="white"/>
<stop offset="1" stop-color="white" stop-opacity="0"/>
</linearGradient>
<clipPath id="clip0">
<rect width="60" height="97" fill="white" transform="translate(30.0004 11)"/>
</clipPath>
</defs>
</svg>
