<svg width="120" height="120" viewBox="0 0 120 120" fill="none" xmlns="http://www.w3.org/2000/svg">
<path fill-rule="evenodd" clip-rule="evenodd" d="M19.4234 25.2254C18.4046 23.9112 19.3412 22 21.0041 22H99.959C101.609 22 102.549 23.8849 101.557 25.2029L69.4635 67.8343V87.4793C69.4635 88.132 69.145 88.7436 68.6104 89.1178L55.6104 98.2178C54.2848 99.1457 52.4635 98.1974 52.4635 96.5793V67.8422L19.4234 25.2254ZM99.959 24H21.0041L31.0827 37H66.9635C67.5157 37 67.9635 37.4477 67.9635 38C67.9635 38.5523 67.5157 39 66.9635 39H32.6333L54.0441 66.6168C54.3159 66.9675 54.4635 67.3986 54.4635 67.8422V96.5793L67.4635 87.4793V67.8343C67.4635 67.4004 67.6046 66.9782 67.8656 66.6315L99.959 24ZM74.4635 38C74.4635 37.4477 74.9112 37 75.4635 37H79.4635C80.0157 37 80.4635 37.4477 80.4635 38C80.4635 38.5523 80.0157 39 79.4635 39H75.4635C74.9112 39 74.4635 38.5523 74.4635 38Z" fill="white"/>
<path fill-rule="evenodd" clip-rule="evenodd" d="M19.4234 25.2254C18.4046 23.9112 19.3412 22 21.0041 22H99.959C101.609 22 102.549 23.8849 101.557 25.2029L69.4635 67.8343V87.4793C69.4635 88.132 69.145 88.7436 68.6104 89.1178L55.6104 98.2178C54.2848 99.1457 52.4635 98.1974 52.4635 96.5793V67.8422L19.4234 25.2254ZM99.959 24H21.0041L31.0827 37H66.9635C67.5157 37 67.9635 37.4477 67.9635 38C67.9635 38.5523 67.5157 39 66.9635 39H32.6333L54.0441 66.6168C54.3159 66.9675 54.4635 67.3986 54.4635 67.8422V96.5793L67.4635 87.4793V67.8343C67.4635 67.4004 67.6046 66.9782 67.8656 66.6315L99.959 24ZM74.4635 38C74.4635 37.4477 74.9112 37 75.4635 37H79.4635C80.0157 37 80.4635 37.4477 80.4635 38C80.4635 38.5523 80.0157 39 79.4635 39H75.4635C74.9112 39 74.4635 38.5523 74.4635 38Z" fill="url(#paint0_linear)"/>
<defs>
<linearGradient id="paint0_linear" x1="60.4815" y1="22" x2="60.4815" y2="98.5828" gradientUnits="userSpaceOnUse">
<stop stop-color="white"/>
<stop offset="1" stop-color="white" stop-opacity="0"/>
</linearGradient>
</defs>
</svg>
