<svg width="120" height="120" viewBox="0 0 120 120" fill="none" xmlns="http://www.w3.org/2000/svg">
<path fill-rule="evenodd" clip-rule="evenodd" d="M64.6483 23.0941C72.1296 23.9467 78.4467 26.9093 83.9044 32.1258L61.9427 54.2163L64.6483 23.0941ZM60.2949 57.769C60.4287 57.833 60.5731 57.8636 60.7148 57.8636C60.973 57.8636 61.2273 57.7623 61.418 57.5705L86.0204 32.8225C86.2058 32.636 86.3105 32.3816 86.3105 32.1165C86.3105 31.8514 86.2058 31.597 86.0204 31.4105C79.8225 25.1762 72.565 21.7727 63.8336 21.004C63.5727 20.98 63.3092 21.064 63.1079 21.2345C62.9066 21.4037 62.7808 21.6488 62.7569 21.9125L59.7255 56.7766C59.6897 57.1949 59.9175 57.5918 60.2949 57.769Z" fill="white"/>
<path fill-rule="evenodd" clip-rule="evenodd" d="M64.6483 23.0941C72.1296 23.9467 78.4467 26.9093 83.9044 32.1258L61.9427 54.2163L64.6483 23.0941ZM60.2949 57.769C60.4287 57.833 60.5731 57.8636 60.7148 57.8636C60.973 57.8636 61.2273 57.7623 61.418 57.5705L86.0204 32.8225C86.2058 32.636 86.3105 32.3816 86.3105 32.1165C86.3105 31.8514 86.2058 31.597 86.0204 31.4105C79.8225 25.1762 72.565 21.7727 63.8336 21.004C63.5727 20.98 63.3092 21.064 63.1079 21.2345C62.9066 21.4037 62.7808 21.6488 62.7569 21.9125L59.7255 56.7766C59.6897 57.1949 59.9175 57.5918 60.2949 57.769Z" fill="url(#paint0_linear)"/>
<path fill-rule="evenodd" clip-rule="evenodd" d="M87.9014 70.1024C87.8947 70.0704 87.8735 70.0438 87.8643 70.0132C87.7596 69.6761 87.4908 69.3991 87.1213 69.3258L57.4691 63.4272C56.9394 63.3259 56.4096 63.6723 56.3024 64.2131C56.1951 64.7553 56.5447 65.2802 57.0824 65.3881L85.7374 71.0868C81.8636 88.2351 65.5344 99.6527 48.0901 97.1843C39.1494 95.9201 31.2337 91.2297 25.7999 83.9777C20.3675 76.7257 18.0671 67.7779 19.3239 58.7848C20.7105 48.8645 26.3522 40.1019 34.8055 34.7455C40.8141 30.9356 47.6888 29.1572 54.7502 29.5742L53.353 45.6315V45.6328L52.0697 60.3793C52.0221 60.9281 52.4273 61.413 52.9729 61.461C53.0021 61.465 53.0312 61.4663 53.0604 61.4663C53.5702 61.4663 54.0033 61.0733 54.0483 60.5538L55.2522 46.7331V46.7318L56.8162 28.739C56.84 28.4752 56.7566 28.2128 56.5871 28.0103C56.4189 27.8078 56.1766 27.6799 55.9143 27.6573C48.0702 26.9673 40.4088 28.8335 33.7474 33.0537C24.7987 38.7245 18.8246 48.0027 17.3546 58.5064C16.0262 68.0283 18.4604 77.5023 24.2134 85.1793C29.9677 92.8602 38.3482 97.8263 47.8133 99.1625C49.5005 99.4009 51.1758 99.5181 52.8339 99.5181C69.6717 99.5181 84.5653 87.5544 87.904 70.498C87.9278 70.3782 87.9212 70.2596 87.9014 70.145C87.9 70.1304 87.904 70.1157 87.9014 70.1024Z" fill="white"/>
<path fill-rule="evenodd" clip-rule="evenodd" d="M87.9014 70.1024C87.8947 70.0704 87.8735 70.0438 87.8643 70.0132C87.7596 69.6761 87.4908 69.3991 87.1213 69.3258L57.4691 63.4272C56.9394 63.3259 56.4096 63.6723 56.3024 64.2131C56.1951 64.7553 56.5447 65.2802 57.0824 65.3881L85.7374 71.0868C81.8636 88.2351 65.5344 99.6527 48.0901 97.1843C39.1494 95.9201 31.2337 91.2297 25.7999 83.9777C20.3675 76.7257 18.0671 67.7779 19.3239 58.7848C20.7105 48.8645 26.3522 40.1019 34.8055 34.7455C40.8141 30.9356 47.6888 29.1572 54.7502 29.5742L53.353 45.6315V45.6328L52.0697 60.3793C52.0221 60.9281 52.4273 61.413 52.9729 61.461C53.0021 61.465 53.0312 61.4663 53.0604 61.4663C53.5702 61.4663 54.0033 61.0733 54.0483 60.5538L55.2522 46.7331V46.7318L56.8162 28.739C56.84 28.4752 56.7566 28.2128 56.5871 28.0103C56.4189 27.8078 56.1766 27.6799 55.9143 27.6573C48.0702 26.9673 40.4088 28.8335 33.7474 33.0537C24.7987 38.7245 18.8246 48.0027 17.3546 58.5064C16.0262 68.0283 18.4604 77.5023 24.2134 85.1793C29.9677 92.8602 38.3482 97.8263 47.8133 99.1625C49.5005 99.4009 51.1758 99.5181 52.8339 99.5181C69.6717 99.5181 84.5653 87.5544 87.904 70.498C87.9278 70.3782 87.9212 70.2596 87.9014 70.145C87.9 70.1304 87.904 70.1157 87.9014 70.1024Z" fill="url(#paint1_linear)"/>
<path fill-rule="evenodd" clip-rule="evenodd" d="M101.555 62.7849L70.0684 58.3343L92.5505 35.719C99.6212 43.2068 102.722 52.525 101.555 62.7849ZM93.2628 33.5903C92.8907 33.216 92.2311 33.216 91.859 33.5903L67.2565 58.3383C66.989 58.6061 66.8963 59.003 67.0168 59.3614C67.136 59.721 67.4472 59.9821 67.8194 60.0341L102.275 64.9043C102.321 64.911 102.366 64.9149 102.413 64.9149C102.629 64.9149 102.838 64.8457 103.011 64.7138C103.222 64.5539 103.36 64.3155 103.398 64.0544C105.02 52.4277 101.517 41.8934 93.2628 33.5903Z" fill="white"/>
<path fill-rule="evenodd" clip-rule="evenodd" d="M101.555 62.7849L70.0684 58.3343L92.5505 35.719C99.6212 43.2068 102.722 52.525 101.555 62.7849ZM93.2628 33.5903C92.8907 33.216 92.2311 33.216 91.859 33.5903L67.2565 58.3383C66.989 58.6061 66.8963 59.003 67.0168 59.3614C67.136 59.721 67.4472 59.9821 67.8194 60.0341L102.275 64.9043C102.321 64.911 102.366 64.9149 102.413 64.9149C102.629 64.9149 102.838 64.8457 103.011 64.7138C103.222 64.5539 103.36 64.3155 103.398 64.0544C105.02 52.4277 101.517 41.8934 93.2628 33.5903Z" fill="url(#paint2_linear)"/>
<defs>
<linearGradient id="paint0_linear" x1="73.0161" y1="21" x2="73.0161" y2="57.8636" gradientUnits="userSpaceOnUse">
<stop stop-color="white"/>
<stop offset="1" stop-color="white" stop-opacity="0"/>
</linearGradient>
<linearGradient id="paint1_linear" x1="52.4598" y1="27.5171" x2="52.4598" y2="99.5181" gradientUnits="userSpaceOnUse">
<stop stop-color="white"/>
<stop offset="1" stop-color="white" stop-opacity="0"/>
</linearGradient>
<linearGradient id="paint2_linear" x1="85.3748" y1="33.3096" x2="85.3748" y2="64.9149" gradientUnits="userSpaceOnUse">
<stop stop-color="white"/>
<stop offset="1" stop-color="white" stop-opacity="0"/>
</linearGradient>
</defs>
</svg>
