<svg width="120" height="120" viewBox="0 0 120 120" fill="none" xmlns="http://www.w3.org/2000/svg">
<path d="M66.1289 85.743H65.9113C65.4199 82.4926 62.6119 80.0005 59.2281 80.0005H23.4183C20.0346 80.0005 17.2265 82.4997 16.7351 85.743H16.5175C13.3935 85.743 10.8593 88.2772 10.8593 91.4012V91.5486C10.8593 94.6656 13.3935 97.1999 16.5105 97.1999H66.1219C69.2389 97.1999 71.7732 94.6656 71.7732 91.5486V91.4012C71.7802 88.2772 69.2459 85.743 66.1289 85.743ZM23.4183 81.924H59.2281C61.5448 81.924 63.4894 83.5597 63.9527 85.743H18.6937C19.1571 83.5667 21.1017 81.924 23.4183 81.924ZM69.8567 91.5486C69.8567 93.6055 68.1859 95.2763 66.1289 95.2763H16.5105C14.4536 95.2763 12.7828 93.6055 12.7828 91.5486V91.4012C12.7828 89.3443 14.4536 87.6735 16.5105 87.6735H17.3108C17.4091 87.7086 17.5144 87.7227 17.6197 87.7227C17.725 87.7227 17.8303 87.7016 17.9286 87.6735H64.7109C64.8092 87.7086 64.9145 87.7227 65.0198 87.7227C65.1251 87.7227 65.2304 87.7016 65.3287 87.6735H66.1289C68.1859 87.6735 69.8567 89.3443 69.8567 91.4012V91.5486Z" fill="white"/>
<path d="M66.1289 85.743H65.9113C65.4199 82.4926 62.6119 80.0005 59.2281 80.0005H23.4183C20.0346 80.0005 17.2265 82.4997 16.7351 85.743H16.5175C13.3935 85.743 10.8593 88.2772 10.8593 91.4012V91.5486C10.8593 94.6656 13.3935 97.1999 16.5105 97.1999H66.1219C69.2389 97.1999 71.7732 94.6656 71.7732 91.5486V91.4012C71.7802 88.2772 69.2459 85.743 66.1289 85.743ZM23.4183 81.924H59.2281C61.5448 81.924 63.4894 83.5597 63.9527 85.743H18.6937C19.1571 83.5667 21.1017 81.924 23.4183 81.924ZM69.8567 91.5486C69.8567 93.6055 68.1859 95.2763 66.1289 95.2763H16.5105C14.4536 95.2763 12.7828 93.6055 12.7828 91.5486V91.4012C12.7828 89.3443 14.4536 87.6735 16.5105 87.6735H17.3108C17.4091 87.7086 17.5144 87.7227 17.6197 87.7227C17.725 87.7227 17.8303 87.7016 17.9286 87.6735H64.7109C64.8092 87.7086 64.9145 87.7227 65.0198 87.7227C65.1251 87.7227 65.2304 87.7016 65.3287 87.6735H66.1289C68.1859 87.6735 69.8567 89.3443 69.8567 91.4012V91.5486Z" fill="url(#paint0_linear)"/>
<path d="M105.723 68.0382C105.709 68.0312 105.702 68.0241 105.688 68.0241L61.0674 49.0065L64.4932 41.8039C64.6758 41.8249 64.8583 41.8319 65.0478 41.8319C67.1328 41.8319 69.0493 40.6245 69.9409 38.7501L70.0041 38.6237C70.6218 37.325 70.692 35.8578 70.2076 34.4959C69.7232 33.134 68.7404 32.0458 67.4417 31.4281L48.6909 22.5195C47.9678 22.1755 47.1885 22 46.3882 22C44.3033 22 42.3868 23.2075 41.4952 25.0818L41.432 25.2082C40.4211 27.3283 40.9266 29.7854 42.5061 31.3579L32.2216 53.008C32.039 52.987 31.8565 52.9799 31.667 52.9799C29.582 52.9799 27.6655 54.1874 26.7739 56.0618L26.7107 56.1882C26.093 57.4869 26.0228 58.9541 26.5072 60.316C26.9916 61.6779 27.9744 62.766 29.2731 63.3838L48.0169 72.2924C48.747 72.6364 49.5192 72.8119 50.3195 72.8119C52.4045 72.8119 54.321 71.6044 55.2126 69.73L55.2758 69.6037C55.8935 68.3049 55.9637 66.8377 55.4793 65.4758C55.2056 64.7036 54.7703 64.0156 54.2017 63.454L57.6275 56.2373L100.542 78.8352C100.556 78.8422 100.563 78.8492 100.577 78.8562C101.405 79.2494 102.276 79.4319 103.139 79.4319C105.379 79.4319 107.534 78.1683 108.559 76.0131C109.977 73.0365 108.706 69.4563 105.723 68.0382ZM43.173 26.0366L43.2362 25.9102C43.8048 24.7098 45.0474 23.9305 46.3882 23.9305C46.9007 23.9305 47.3991 24.0429 47.8695 24.2675L66.6133 33.1761C67.4487 33.5692 68.0805 34.2712 68.3894 35.1488C68.6983 36.0263 68.6562 36.967 68.256 37.8024L68.1929 37.9287C67.6242 39.1292 66.3816 39.9084 65.0408 39.9084C64.5283 39.9084 64.0299 39.7961 63.5595 39.5715L44.8157 30.6629C43.0958 29.8415 42.3517 27.7635 43.173 26.0366ZM53.5348 68.7753L53.4716 68.9017C52.903 70.1021 51.6604 70.8813 50.3195 70.8813C49.8071 70.8813 49.3086 70.769 48.8383 70.5444L30.0945 61.6358C29.2591 61.2427 28.6273 60.5407 28.3184 59.6631C28.0095 58.7856 28.0516 57.8449 28.4517 57.0095L28.5149 56.8832C29.0836 55.6827 30.3261 54.9035 31.667 54.9035C32.1794 54.9035 32.6779 55.0158 33.1482 55.2404L51.892 64.149C52.7274 64.5421 53.3593 65.2442 53.6681 66.1217C53.977 66.9992 53.9279 67.9399 53.5348 68.7753ZM52.5941 62.3519L34.0889 53.5556L44.1137 32.46L62.6188 41.2493L52.5941 62.3519ZM106.825 75.1847C105.87 77.1995 103.448 78.063 101.433 77.1152L58.4629 54.4963L60.246 50.7475L104.915 69.7862C106.923 70.755 107.78 73.1699 106.825 75.1847Z" fill="white"/>
<path d="M105.723 68.0382C105.709 68.0312 105.702 68.0241 105.688 68.0241L61.0674 49.0065L64.4932 41.8039C64.6758 41.8249 64.8583 41.8319 65.0478 41.8319C67.1328 41.8319 69.0493 40.6245 69.9409 38.7501L70.0041 38.6237C70.6218 37.325 70.692 35.8578 70.2076 34.4959C69.7232 33.134 68.7404 32.0458 67.4417 31.4281L48.6909 22.5195C47.9678 22.1755 47.1885 22 46.3882 22C44.3033 22 42.3868 23.2075 41.4952 25.0818L41.432 25.2082C40.4211 27.3283 40.9266 29.7854 42.5061 31.3579L32.2216 53.008C32.039 52.987 31.8565 52.9799 31.667 52.9799C29.582 52.9799 27.6655 54.1874 26.7739 56.0618L26.7107 56.1882C26.093 57.4869 26.0228 58.9541 26.5072 60.316C26.9916 61.6779 27.9744 62.766 29.2731 63.3838L48.0169 72.2924C48.747 72.6364 49.5192 72.8119 50.3195 72.8119C52.4045 72.8119 54.321 71.6044 55.2126 69.73L55.2758 69.6037C55.8935 68.3049 55.9637 66.8377 55.4793 65.4758C55.2056 64.7036 54.7703 64.0156 54.2017 63.454L57.6275 56.2373L100.542 78.8352C100.556 78.8422 100.563 78.8492 100.577 78.8562C101.405 79.2494 102.276 79.4319 103.139 79.4319C105.379 79.4319 107.534 78.1683 108.559 76.0131C109.977 73.0365 108.706 69.4563 105.723 68.0382ZM43.173 26.0366L43.2362 25.9102C43.8048 24.7098 45.0474 23.9305 46.3882 23.9305C46.9007 23.9305 47.3991 24.0429 47.8695 24.2675L66.6133 33.1761C67.4487 33.5692 68.0805 34.2712 68.3894 35.1488C68.6983 36.0263 68.6562 36.967 68.256 37.8024L68.1929 37.9287C67.6242 39.1292 66.3816 39.9084 65.0408 39.9084C64.5283 39.9084 64.0299 39.7961 63.5595 39.5715L44.8157 30.6629C43.0958 29.8415 42.3517 27.7635 43.173 26.0366ZM53.5348 68.7753L53.4716 68.9017C52.903 70.1021 51.6604 70.8813 50.3195 70.8813C49.8071 70.8813 49.3086 70.769 48.8383 70.5444L30.0945 61.6358C29.2591 61.2427 28.6273 60.5407 28.3184 59.6631C28.0095 58.7856 28.0516 57.8449 28.4517 57.0095L28.5149 56.8832C29.0836 55.6827 30.3261 54.9035 31.667 54.9035C32.1794 54.9035 32.6779 55.0158 33.1482 55.2404L51.892 64.149C52.7274 64.5421 53.3593 65.2442 53.6681 66.1217C53.977 66.9992 53.9279 67.9399 53.5348 68.7753ZM52.5941 62.3519L34.0889 53.5556L44.1137 32.46L62.6188 41.2493L52.5941 62.3519ZM106.825 75.1847C105.87 77.1995 103.448 78.063 101.433 77.1152L58.4629 54.4963L60.246 50.7475L104.915 69.7862C106.923 70.755 107.78 73.1699 106.825 75.1847Z" fill="url(#paint1_linear)"/>
<defs>
<linearGradient id="paint0_linear" x1="41.3162" y1="80.0005" x2="41.3162" y2="97.1999" gradientUnits="userSpaceOnUse">
<stop stop-color="white"/>
<stop offset="1" stop-color="white" stop-opacity="0"/>
</linearGradient>
<linearGradient id="paint1_linear" x1="67.6641" y1="22" x2="67.6641" y2="79.4319" gradientUnits="userSpaceOnUse">
<stop stop-color="white"/>
<stop offset="1" stop-color="white" stop-opacity="0"/>
</linearGradient>
</defs>
</svg>
