<svg width="66" height="65" viewBox="0 0 66 65" fill="none" xmlns="http://www.w3.org/2000/svg">
<path d="M41.5043 12.6833H24.6043C23.3824 12.6833 22.3918 13.6739 22.3918 14.8958V50.1042C22.3918 51.3261 23.3824 52.3167 24.6043 52.3167H41.5043C42.7262 52.3167 43.7168 51.3261 43.7168 50.1042V14.8958C43.7168 13.6739 42.7262 12.6833 41.5043 12.6833ZM21.1835 14.8958C21.1835 13.0066 22.715 11.475 24.6043 11.475H41.5043C43.3936 11.475 44.9251 13.0066 44.9251 14.8958V50.1042C44.9251 51.9934 43.3936 53.525 41.5043 53.525H24.6043C22.715 53.525 21.1835 51.9934 21.1835 50.1042V14.8958Z" fill="white" stroke="white" stroke-width="0.2"/>
<rect x="22.1668" y="15.7083" width="21.6667" height="1.08333" fill="white"/>
<rect x="22.1668" y="48.2083" width="21.6667" height="1.08334" fill="white"/>
<ellipse cx="33.055" cy="50.817" rx="0.704166" ry="0.704165" fill="white"/>
</svg>
