<svg width="65" height="65" viewBox="0 0 65 65" fill="none" xmlns="http://www.w3.org/2000/svg">
<path fill-rule="evenodd" clip-rule="evenodd" d="M24.3193 11.375H57.4581C57.7807 11.375 58.0226 11.6975 58.0226 12.02V37.8216V39.1116V44.4332V44.5138V44.5945C58.0226 44.917 57.7807 45.1589 57.4581 45.1589L34.8818 44.9976V52.4962H46.7344C47.0569 52.4962 47.2988 52.7381 47.2988 53.0606C47.2988 53.3831 47.0569 53.625 46.7344 53.625H17.8689C17.5464 53.625 17.3045 53.3831 17.3045 53.0606C17.3045 52.7381 17.5464 52.4962 17.8689 52.4962H29.7215V48.3034C29.7215 47.9809 29.9634 47.739 30.2859 47.739C30.6084 47.739 30.8503 47.9809 30.8503 48.3034V52.4962H33.6724V44.9976H7.06454C6.74202 44.9976 6.50012 44.7557 6.50012 44.4332V31.6131V31.3712V11.9394C6.50012 11.6169 6.74202 11.375 7.06454 11.375H24.3193ZM56.8751 12.4583H7.58346V43.875H56.8751V12.4583Z" fill="white"/>
<path fill-rule="evenodd" clip-rule="evenodd" d="M24.3193 11.375H57.4581C57.7807 11.375 58.0226 11.6975 58.0226 12.02V37.8216V39.1116V44.4332V44.5138V44.5945C58.0226 44.917 57.7807 45.1589 57.4581 45.1589L34.8818 44.9976V52.4962H46.7344C47.0569 52.4962 47.2988 52.7381 47.2988 53.0606C47.2988 53.3831 47.0569 53.625 46.7344 53.625H17.8689C17.5464 53.625 17.3045 53.3831 17.3045 53.0606C17.3045 52.7381 17.5464 52.4962 17.8689 52.4962H29.7215V48.3034C29.7215 47.9809 29.9634 47.739 30.2859 47.739C30.6084 47.739 30.8503 47.9809 30.8503 48.3034V52.4962H33.6724V44.9976H7.06454C6.74202 44.9976 6.50012 44.7557 6.50012 44.4332V31.6131V31.3712V11.9394C6.50012 11.6169 6.74202 11.375 7.06454 11.375H24.3193ZM56.8751 12.4583H7.58346V43.875H56.8751V12.4583Z" fill="url(#paint0_linear)"/>
<rect x="7.58344" y="40.625" width="49.2917" height="1.08333" fill="white"/>
<rect x="7.58344" y="40.625" width="49.2917" height="1.08333" fill="url(#paint1_linear)"/>
<defs>
<linearGradient id="paint0_linear" x1="32.2613" y1="11.375" x2="32.2613" y2="53.625" gradientUnits="userSpaceOnUse">
<stop stop-color="white"/>
<stop offset="1" stop-color="white" stop-opacity="0"/>
</linearGradient>
<linearGradient id="paint1_linear" x1="32.2293" y1="40.625" x2="32.2293" y2="41.7083" gradientUnits="userSpaceOnUse">
<stop stop-color="white"/>
<stop offset="1" stop-color="white" stop-opacity="0"/>
</linearGradient>
</defs>
</svg>
